<?xml version="1.0" standalone="no"?>
<!DOCTYPE svg PUBLIC "-//W3C//DTD SVG 20010904//EN"
 "http://www.w3.org/TR/2001/REC-SVG-20010904/DTD/svg10.dtd">
<svg version="1.0" xmlns="http://www.w3.org/2000/svg"
 width="550.000000pt" height="550.000000pt" viewBox="0 0 550.000000 550.000000"
 preserveAspectRatio="xMidYMid meet">
<metadata>
Created by potrace 1.14, written by Peter Selinger 2001-2017
</metadata>
<g transform="translate(0.000000,550.000000) scale(0.100000,-0.100000)"
fill="#000000" stroke="none">
<path d="M1925 5334 c-74 -40 -110 -103 -102 -176 4 -37 46 -128 59 -128 4 0
8 -7 8 -15 0 -8 5 -15 10 -15 6 0 10 -4 10 -9 0 -5 23 -46 50 -90 28 -44 50
-85 50 -91 0 -5 3 -10 8 -10 9 0 36 -61 57 -130 15 -49 67 -202 82 -240 4 -8
7 -17 8 -20 1 -3 5 -14 9 -25 12 -32 55 -149 62 -167 5 -16 -1 -17 -82 -12
-100 7 -378 7 -409 0 -11 -2 -51 -7 -90 -12 -69 -8 -78 -9 -92 -14 -5 -1 -12
-2 -16 -1 -30 5 -385 -102 -605 -184 -85 -31 -301 -144 -330 -172 -7 -7 -19
-13 -27 -13 -7 0 -15 -3 -17 -7 -1 -5 -21 -21 -43 -38 -69 -52 -77 -58 -165
-145 -100 -99 -162 -184 -218 -295 -49 -99 -96 -241 -107 -328 -3 -18 -7 -43
-10 -57 -26 -125 -26 -617 -1 -730 3 -14 7 -38 10 -55 11 -71 39 -204 53 -250
35 -117 67 -212 81 -245 9 -19 17 -38 18 -42 1 -5 3 -11 4 -15 1 -5 2 -11 1
-15 0 -5 4 -8 9 -8 6 0 10 -7 10 -15 0 -35 178 -348 254 -448 18 -24 37 -50
42 -59 23 -40 154 -187 260 -293 198 -197 387 -316 669 -422 22 -9 49 -19 60
-23 44 -17 242 -73 302 -85 131 -26 237 -45 273 -49 25 -3 61 -7 80 -10 163
-24 303 -31 655 -30 451 0 591 9 770 48 102 23 333 105 470 167 28 12 52 23
55 23 21 5 290 148 332 177 14 11 31 19 37 19 6 0 11 5 11 10 0 6 7 10 15 10
8 0 15 5 15 10 0 6 5 10 11 10 24 0 243 176 350 282 133 131 214 230 295 360
69 111 161 302 199 413 15 44 30 87 33 95 3 8 6 20 7 25 2 6 10 35 19 66 9 31
19 67 21 80 3 13 7 35 10 49 2 14 7 39 10 55 3 17 7 41 10 55 21 102 27 412
11 550 -5 41 -10 86 -11 100 -8 63 -22 141 -50 280 -3 14 -7 37 -10 52 -10 53
-77 264 -112 353 -40 102 -132 280 -152 295 -4 3 -15 18 -24 33 -47 73 -174
201 -250 251 -50 33 -189 106 -202 106 -3 0 -30 11 -58 24 -29 13 -70 29 -92
36 -22 7 -49 16 -60 21 -19 7 -61 21 -77 25 -5 1 -10 3 -13 4 -3 1 -8 3 -12 5
-5 1 -15 5 -23 8 -8 4 -26 9 -40 11 -14 3 -63 15 -110 27 -47 11 -96 23 -110
25 -14 2 -36 7 -50 10 -14 3 -38 8 -55 10 -16 2 -46 7 -65 11 -19 3 -44 7 -55
8 -11 1 -45 5 -75 9 -192 23 -602 24 -720 1 -14 -3 -41 -7 -60 -9 -45 -5 -252
-56 -265 -65 -21 -14 -114 -42 -123 -37 -5 3 -24 43 -42 88 -17 46 -38 97 -45
113 -7 17 -27 62 -44 102 -17 39 -31 76 -31 82 0 6 -4 11 -10 11 -5 0 -10 5
-10 12 0 6 -22 55 -48 107 -27 53 -52 114 -55 136 -28 169 -50 253 -86 323
-27 52 -70 90 -127 111 -64 23 -150 26 -189 5z"/>
</g>
</svg>
