<svg width="199" height="182" viewBox="0 0 199 182" fill="none" xmlns="http://www.w3.org/2000/svg">
<path d="M137.5 91C137.5 115.862 133.01 138.251 125.854 154.33C122.274 162.373 118.077 168.727 113.542 173.037C109.02 177.334 104.28 179.5 99.5 179.5C94.7204 179.5 89.9795 177.334 85.4578 173.037C80.9231 168.727 76.7256 162.373 73.1462 154.33C65.99 138.251 61.5 115.862 61.5 91C61.5 66.1375 65.99 43.749 73.1462 27.6698C76.7256 19.6271 80.9231 13.273 85.4578 8.9634C89.9795 4.66609 94.7204 2.5 99.5 2.5C104.28 2.5 109.02 4.66609 113.542 8.9634C118.077 13.273 122.274 19.6271 125.854 27.6698C133.01 43.749 137.5 66.1375 137.5 91Z" stroke="black" stroke-width="5"/>
<path d="M118.5 123.909C96.9685 136.34 75.3345 143.646 57.8314 145.488C49.0764 146.41 41.475 145.952 35.4753 144.179C29.4929 142.412 25.2466 139.389 22.8568 135.25C20.467 131.111 19.9724 125.922 21.4331 119.857C22.898 113.775 26.3021 106.963 31.4776 99.842C41.8245 85.605 58.9685 70.5223 80.5 58.091C102.032 45.6598 123.666 38.354 141.169 36.5118C149.924 35.5904 157.525 36.0484 163.525 37.8208C169.507 39.5881 173.753 42.6107 176.143 46.75C178.533 50.8893 179.028 56.078 177.567 62.1426C176.102 68.2246 172.698 75.0367 167.523 82.158C157.176 96.395 140.032 111.478 118.5 123.909Z" stroke="black" stroke-width="5"/>
<path d="M80.5 123.909C58.9685 111.478 41.8245 96.395 31.4776 82.158C26.3021 75.0367 22.898 68.2246 21.4331 62.1426C19.9725 56.078 20.467 50.8892 22.8568 46.75C25.2466 42.6107 29.4929 39.5881 35.4754 37.8208C41.475 36.0484 49.0765 35.5903 57.8314 36.5118C75.3345 38.354 96.9685 45.6598 118.5 58.091C140.032 70.5223 157.176 85.605 167.523 99.842C172.698 106.963 176.102 113.775 177.567 119.857C179.028 125.922 178.533 131.111 176.143 135.25C173.753 139.389 169.507 142.412 163.525 144.179C157.525 145.952 149.924 146.41 141.169 145.488C123.666 143.646 102.032 136.34 80.5 123.909Z" stroke="black" stroke-width="5"/>
</svg>
