<svg width="550" height="521" viewBox="0 0 550 521" fill="none" xmlns="http://www.w3.org/2000/svg">
<path d="M242.681 132.737C246.823 133.373 251.052 134.042 255.187 135.073C256.552 132.882 258.101 130.885 260.328 129.498C277.933 118.534 301.109 114.499 321.35 113.201C371.779 109.969 423.641 118.765 469.678 140.43C515.248 161.875 530.372 231.515 534.415 279.101C538.472 326.855 521.141 382.299 491.69 418.077C467.806 447.093 438.994 466.304 406.52 481.542C381.44 493.31 354.876 503.495 327.294 504.721C281.295 506.767 233.53 507.468 188.254 497.94C155.387 491.023 120.256 478.724 94.2597 454.82C41.0757 405.916 11.1184 340.599 15.4052 263.513C17.2588 230.184 23.5595 205.598 47.0771 182.74C75.0712 155.53 107.374 145.492 142.743 135.369C175.32 126.045 209.721 127.678 242.681 132.737Z" fill="#F0462C"/>
<path d="M272.774 144.074C270.109 143.711 267.769 139.827 265.25 138.608C258.186 135.186 250.285 133.904 242.681 132.737C209.721 127.678 175.32 126.045 142.743 135.369C107.374 145.492 75.0712 155.53 47.0771 182.74C23.5595 205.598 17.2588 230.184 15.4052 263.513C11.1184 340.599 41.0757 405.916 94.2597 454.82C120.256 478.724 155.387 491.023 188.254 497.94C233.53 507.468 281.295 506.768 327.294 504.721C354.876 503.494 381.44 493.31 406.52 481.542C438.994 466.304 467.806 447.093 491.69 418.077C521.141 382.299 538.472 326.855 534.415 279.101C530.372 231.515 515.248 161.875 469.678 140.43C423.641 118.765 371.779 109.969 321.35 113.201C301.109 114.499 277.933 118.534 260.328 129.498C255.059 132.779 253.586 139.476 249.368 144.074" stroke="#F0462C" stroke-width="30" stroke-linecap="round"/>
<path d="M250.986 129.563C248.049 125.892 247.584 119.155 245.932 114.751C241.462 102.83 236.702 90.9418 231.381 79.3757C221.969 58.913 210.406 38.6201 198.01 19.7778C193.532 12.9705 204.951 14.9315 207.943 16.6411C213.97 20.0848 216.89 42.8035 217.963 48.7054C220.725 63.8953 227.275 78.8183 232.166 93.491C235.558 103.669 241.576 115.68 241.576 126.427C241.576 128.497 243.688 139.048 242.621 139.671C239.156 141.692 232.522 140.504 228.767 140.629C217.946 140.99 207.408 142.921 196.79 144.898C180.516 147.929 164.61 151.927 149.129 157.881C134.996 163.317 122.306 172.697 109.31 180.361C96.2605 188.057 110.464 181.371 115.932 179.402C144.719 169.039 174.157 156.847 203.935 149.604C209.109 148.345 227.476 142.024 224.934 151.346C217.658 178.022 210.53 205.388 203.935 231.768C202.366 238.045 199.23 245.948 199.23 252.244C199.23 259.293 196.093 280.204 196.093 273.156C196.093 267.589 198.686 262.987 200.45 257.821C206.069 241.363 211.371 224.839 218.05 208.766C225.727 190.295 234.16 173.56 245.497 157.184C246.725 155.41 248.484 151.197 251.073 152.653C264.86 160.408 276.492 179.146 287.058 190.381C303.327 207.68 317.221 224.45 329.578 244.751C330.464 246.206 336.729 260.344 335.765 254.074C333.927 242.127 328.947 231.275 323.741 220.354C312.753 197.306 300.342 175.715 286.187 154.483C277.753 141.832 273.002 136.842 259.176 131.132C257.129 130.286 249.716 126.439 249.94 126.427C266.727 125.467 283.594 124.409 300.302 122.506C323.599 119.852 345.738 117.324 369.049 120.066C372.778 120.505 376.219 123.065 379.592 123.29C391.117 124.058 356.812 118.585 345.262 118.585C316.411 118.585 289.151 125.016 262.052 133.484C251.29 136.847 235.599 147.324 230.946 157.794C227.493 165.564 238.123 153.405 239.833 151.695C246.559 144.969 247.458 146.031 255.691 148.384C262.466 150.319 266.717 158.874 272.943 162.15C276.797 164.179 280.134 167.816 283.922 170.341" stroke="#789E61" stroke-width="30" stroke-linecap="round"/>
</svg>
